<svg xmlns="http://www.w3.org/2000/svg" viewBox="0 0 142.42 185.01"><g id="Camada_2" data-name="Camada 2"><g id="Camada_1-2" data-name="Camada 1"><polygon points="118.68 130.19 106.81 137.04 106.81 123.34 118.68 130.19"/><polygon points="71.21 171.3 71.21 185.01 59.34 178.16 59.34 178.15 71.21 171.3"/><polygon points="71.21 171.3 59.34 178.15 47.47 171.3 35.6 164.45 23.74 157.6 11.87 150.75 0 143.89 0 34.26 11.87 27.41 11.87 137.04 23.74 143.9 35.6 150.75 35.61 150.75 47.46 157.6 47.47 157.6 71.21 171.3"/><polygon points="35.6 123.33 35.6 123.34 23.74 130.19 23.74 116.48 35.6 123.33"/><polygon points="35.6 123.34 35.6 137.04 23.74 130.19 35.6 123.34"/><polygon points="35.6 68.52 35.6 123.33 23.74 116.48 23.74 61.67 35.6 68.52"/><polygon points="118.68 116.48 118.68 130.19 106.81 123.34 106.81 123.33 118.68 116.48"/><polygon points="142.42 34.26 142.42 102.77 142.41 102.78 142.42 102.79 142.42 143.9 130.55 150.75 118.68 157.6 106.82 164.45 106.81 164.45 94.95 171.3 94.94 171.3 94.94 171.31 83.08 178.16 71.21 185.01 71.21 171.3 83.08 164.45 94.94 157.6 94.95 157.6 106.81 150.75 118.68 143.89 130.54 137.04 130.55 137.04 130.55 27.41 142.41 34.26 142.42 34.26"/><polygon points="71.21 75.37 71.21 89.08 59.34 82.22 47.48 75.37 47.47 75.37 35.61 68.52 35.6 68.52 23.74 61.67 23.74 47.96 35.6 54.81 35.6 54.82 35.61 54.81 47.47 61.66 47.47 61.67 47.48 61.67 59.34 68.52 59.35 68.52 71.21 75.37"/><polygon points="118.68 47.96 118.68 61.67 106.81 68.52 94.94 75.37 83.08 82.22 71.21 89.08 71.21 75.37 83.07 68.52 83.08 68.53 83.08 68.51 94.94 61.67 94.94 61.66 106.8 54.81 106.81 54.82 106.81 54.81 118.68 47.96"/><polygon points="106.81 41.11 106.81 41.12 94.95 47.97 94.94 47.97 83.08 54.82 71.21 61.67 47.47 47.97 35.6 41.11 47.47 34.26 59.34 41.11 71.21 47.97 83.08 41.12 83.08 41.11 94.94 34.27 94.94 34.26 94.95 34.26 106.81 41.11"/><polygon points="118.68 61.67 118.68 116.48 106.81 123.33 106.81 109.64 106.82 109.63 106.81 109.63 106.81 68.52 118.68 61.67"/><polygon points="142.42 20.56 142.42 34.26 142.41 34.26 130.55 27.41 118.69 34.26 118.68 34.26 106.82 41.11 106.81 41.11 94.95 34.26 106.81 27.41 106.82 27.41 118.68 20.56 118.69 20.56 130.55 13.71 142.42 20.56"/><polygon points="47.47 34.26 35.6 41.11 23.74 34.26 23.73 34.26 11.87 27.41 0 34.26 0 20.56 11.87 13.71 23.73 20.56 23.74 20.56 35.6 27.41 47.47 34.26"/><polygon points="118.68 6.85 106.81 13.7 94.95 20.55 94.94 20.55 94.94 20.56 83.08 27.41 71.21 34.26 59.34 27.41 47.47 20.56 47.47 20.55 47.46 20.55 35.6 13.71 35.6 13.7 23.74 6.86 35.6 0.01 35.6 0 35.61 0 47.47 6.85 71.21 20.55 83.08 13.7 94.94 6.85 94.95 6.85 106.81 0 118.68 6.85"/></g></g></svg>